<?xml version="1.0" standalone="no"?>
<!DOCTYPE svg PUBLIC "-//W3C//DTD SVG 20010904//EN"
 "http://www.w3.org/TR/2001/REC-SVG-20010904/DTD/svg10.dtd">
<svg version="1.0" xmlns="http://www.w3.org/2000/svg"
 width="325.000000pt" height="325.000000pt" viewBox="0 0 325.000000 325.000000"
 preserveAspectRatio="xMidYMid meet">
<metadata>
Created by potrace 1.14, written by Peter Selinger 2001-2017
</metadata>
<g transform="translate(0.000000,325.000000) scale(0.100000,-0.100000)"
fill="#000000" stroke="none">
<path d="M105 3231 c-48 -22 -69 -44 -90 -94 -13 -32 -15 -207 -15 -1512 0
-1305 2 -1480 15 -1512 21 -50 42 -72 90 -94 38 -18 85 -19 838 -19 l797 0 0
630 0 630 -215 0 -215 0 0 245 0 245 215 0 215 0 0 230 c0 272 11 345 72 469
74 152 209 256 385 295 77 17 293 21 461 10 l92 -7 0 -223 0 -222 -177 -4
c-166 -3 -181 -5 -227 -28 -92 -46 -106 -92 -106 -351 l0 -169 245 0 c135 0
245 -1 245 -3 0 -2 -13 -107 -30 -233 -16 -126 -30 -235 -30 -241 0 -10 -50
-13 -215 -13 l-215 0 0 -630 0 -630 433 0 c398 0 435 2 472 19 48 22 69 44 90
94 13 32 15 207 15 1514 0 1413 -1 1480 -19 1518 -22 48 -44 69 -94 90 -32 13
-207 15 -1514 15 -1413 0 -1480 -1 -1518 -19z"/>
</g>
</svg>
